<?xml version="1.0" encoding="UTF-8" standalone="no"?>
<!-- Created with Inkscape (http://www.inkscape.org/) -->

<svg
   version="1.1"
   id="svg2"
   width="579.67999"
   height="590.88"
   viewBox="0 0 579.67999 590.88"
   sodipodi:docname="6029675.eps"
   xmlns:inkscape="http://www.inkscape.org/namespaces/inkscape"
   xmlns:sodipodi="http://sodipodi.sourceforge.net/DTD/sodipodi-0.dtd"
   xmlns="http://www.w3.org/2000/svg"
   xmlns:svg="http://www.w3.org/2000/svg">
  <defs
     id="defs6" />
  <sodipodi:namedview
     id="namedview4"
     pagecolor="#ffffff"
     bordercolor="#000000"
     borderopacity="0.25"
     inkscape:showpageshadow="2"
     inkscape:pageopacity="0.0"
     inkscape:pagecheckerboard="0"
     inkscape:deskcolor="#d1d1d1" />
  <g
     id="g8"
     inkscape:groupmode="layer"
     inkscape:label="ink_ext_XXXXXX"
     transform="matrix(1.3333333,0,0,-1.3333333,0,590.88)">
    <g
       id="g10"
       transform="scale(0.1)">
      <path
         d="m 1397.49,4260.75 c -31.95,-33.09 -31.02,-85.82 2.07,-117.77 33.09,-31.94 85.82,-31.02 117.77,2.08 31.94,33.09 31.02,85.82 -2.07,117.76 -33.1,31.95 -85.82,31.02 -117.77,-2.07 z m -41.38,103.41 c 14.68,8.87 30.3,15.59 46.42,20.18 l 9.56,45.94 77.63,1.36 11.17,-45.57 c 16.26,-4.02 32.12,-10.18 47.1,-18.53 l 39.23,25.71 55.85,-53.93 -24.31,-40.1 c 8.87,-14.68 15.59,-30.31 20.17,-46.43 l 45.94,-9.56 1.36,-77.62 -45.58,-11.18 c -4,-16.26 -10.18,-32.11 -18.52,-47.09 l 25.71,-39.24 -53.92,-55.85 -40.11,24.31 c -14.68,-8.86 -30.31,-15.59 -46.43,-20.17 l -9.56,-45.94 -77.62,-1.36 -11.18,45.58 c -16.26,4.01 -32.11,10.18 -47.09,18.53 l -39.24,-25.72 -55.85,53.93 24.32,40.1 c -8.87,14.69 -15.6,30.31 -20.18,46.43 l -45.94,9.56 -1.36,77.63 45.58,11.17 c 4.01,16.26 10.18,32.11 18.53,47.09 l -25.72,39.24 53.93,55.85 40.11,-24.32"
         style="fill:#dadbd8;fill-opacity:1;fill-rule:nonzero;stroke:none"
         id="path12" />
      <path
         d="m 1398.38,1729.14 c -18.43,-19.08 -17.89,-49.49 1.19,-67.91 19.09,-18.43 49.49,-17.89 67.92,1.19 18.42,19.09 17.89,49.49 -1.2,67.92 -19.08,18.42 -49.49,17.89 -67.91,-1.2 z m -23.86,59.64 c 8.46,5.12 17.47,8.99 26.76,11.64 l 5.52,26.49 44.77,0.79 6.44,-26.29 c 9.38,-2.31 18.52,-5.87 27.16,-10.68 l 22.63,14.83 32.21,-31.1 -14.03,-23.13 c 5.12,-8.47 9,-17.48 11.64,-26.78 l 26.49,-5.51 0.79,-44.77 -26.29,-6.44 c -2.31,-9.38 -5.87,-18.52 -10.68,-27.16 l 14.83,-22.63 -31.1,-32.21 -23.13,14.02 c -8.47,-5.11 -17.48,-8.99 -26.77,-11.63 l -5.52,-26.49 -44.77,-0.79 -6.44,26.29 c -9.38,2.31 -18.52,5.87 -27.16,10.68 l -22.63,-14.83 -32.21,31.1 14.03,23.13 c -5.12,8.47 -9,17.48 -11.64,26.77 l -26.49,5.52 -0.79,44.76 26.29,6.45 c 2.31,9.38 5.87,18.52 10.68,27.16 l -14.83,22.63 31.1,32.21 23.14,-14.03"
         style="fill:#dadbd8;fill-opacity:1;fill-rule:nonzero;stroke:none"
         id="path14" />
      <path
         d="m 415.605,4076.6 c -12.578,-13.03 -12.214,-33.78 0.813,-46.36 13.027,-12.58 33.781,-12.21 46.359,0.81 12.575,13.03 12.211,33.79 -0.816,46.36 -13.027,12.58 -33.781,12.22 -46.356,-0.81 z m -16.292,40.7 c 5.781,3.5 11.929,6.15 18.273,7.95 l 3.766,18.08 30.554,0.54 4.399,-17.94 c 6.406,-1.58 12.644,-4.01 18.543,-7.3 l 15.441,10.13 21.988,-21.23 -9.574,-15.79 c 3.492,-5.78 6.141,-11.93 7.942,-18.28 l 18.085,-3.76 0.536,-30.56 -17.942,-4.39 c -1.578,-6.41 -4.008,-12.65 -7.293,-18.54 l 10.121,-15.45 -21.226,-21.99 -15.789,9.58 c -5.778,-3.49 -11.93,-6.14 -18.274,-7.94 l -3.765,-18.09 -30.555,-0.53 -4.398,17.94 c -6.407,1.57 -12.645,4 -18.54,7.29 l -15.445,-10.12 -21.988,21.23 9.574,15.78 c -3.492,5.78 -6.141,11.93 -7.941,18.28 l -18.086,3.76 -0.535,30.56 17.941,4.4 c 1.578,6.4 4.008,12.64 7.293,18.54 l -10.121,15.44 21.226,21.99 15.79,-9.58"
         style="fill:#dadbd8;fill-opacity:1;fill-rule:nonzero;stroke:none"
         id="path16" />
      <path
         d="m 1924.23,4100.81 c -24.85,-25.75 -24.13,-66.77 1.62,-91.63 25.74,-24.86 66.77,-24.14 91.63,1.61 24.85,25.75 24.13,66.78 -1.62,91.63 -25.74,24.86 -66.77,24.14 -91.63,-1.61 z m -32.19,80.46 c 11.42,6.91 23.57,12.14 36.11,15.7 l 7.44,35.75 60.4,1.06 8.69,-35.46 c 12.66,-3.12 25,-7.93 36.65,-14.42 l 30.53,20.01 43.46,-41.96 -18.92,-31.21 c 6.9,-11.42 12.13,-23.58 15.69,-36.12 l 35.75,-7.44 1.06,-60.4 -35.46,-8.69 c -3.12,-12.66 -7.93,-24.99 -14.42,-36.65 l 20,-30.53 -41.95,-43.45 -31.21,18.92 c -11.42,-6.91 -23.58,-12.14 -36.12,-15.7 l -7.44,-35.75 -60.4,-1.05 -8.69,35.46 c -12.66,3.12 -24.99,7.92 -36.65,14.42 l -30.52,-20.01 -43.46,41.96 18.92,31.2 c -6.9,11.43 -12.14,23.58 -15.7,36.13 l -35.74,7.43 -1.06,60.4 35.46,8.7 c 3.12,12.65 7.92,24.98 14.42,36.64 l -20.01,30.53 41.96,43.46 31.21,-18.93"
         style="fill:#e7e8e5;fill-opacity:1;fill-rule:nonzero;stroke:none"
         id="path18" />
      <path
         d="m 3529.88,2587.32 c -31.91,-33.06 -30.99,-85.74 2.07,-117.65 33.06,-31.92 85.73,-30.99 117.65,2.07 31.91,33.06 30.99,85.73 -2.07,117.65 -33.06,31.91 -85.73,30.98 -117.65,-2.07 z m -41.34,103.3 c 14.67,8.86 30.28,15.58 46.37,20.16 l 9.56,45.9 77.55,1.36 11.16,-45.53 c 16.25,-4.01 32.08,-10.17 47.05,-18.52 l 39.19,25.69 55.8,-53.87 -24.29,-40.06 c 8.86,-14.67 15.58,-30.29 20.15,-46.39 l 45.89,-9.55 1.37,-77.55 -45.53,-11.16 c -4.01,-16.25 -10.18,-32.08 -18.51,-47.05 l 25.68,-39.19 -53.87,-55.8 -40.07,24.29 c -14.66,-8.86 -30.27,-15.58 -46.37,-20.15 l -9.56,-45.9 -77.54,-1.36 -11.17,45.54 c -16.25,4 -32.08,10.17 -47.05,18.51 l -39.19,-25.69 -55.8,53.87 24.3,40.07 c -8.87,14.66 -15.59,30.27 -20.16,46.37 l -45.9,9.56 -1.36,77.54 45.54,11.17 c 4,16.25 10.17,32.08 18.51,47.05 l -25.69,39.19 53.87,55.8 40.07,-24.3"
         style="fill:#dadbd8;fill-opacity:1;fill-rule:nonzero;stroke:none"
         id="path20" />
      <path
         d="m 3826.5,4107.93 c -51.05,0 -92.43,41.38 -92.43,92.43 0,51.05 41.38,92.44 92.43,92.44 51.05,0 92.43,-41.39 92.43,-92.44 0,-51.05 -41.38,-92.43 -92.43,-92.43 z m 210.04,91.45 c 0,129.32 -116.87,231.33 -250.75,206.21 -84.21,-15.81 -151.32,-84.58 -166.07,-168.98 -9.22,-52.75 1.67,-102.38 25.74,-143.34 h -0.12 l 0.6,-0.79 c 8.05,-13.57 18.14,-23.28 28.34,-37.54 l 121.95,-161.54 c 15.17,-20.1 45.37,-20.1 60.54,0 l 119.92,158.88 c 0,0 22.38,26.69 30.5,40.41 l 0.44,0.58 h -0.09 c 18.31,31.16 29,67.35 29,106.11"
         style="fill:#dadbd8;fill-opacity:1;fill-rule:nonzero;stroke:none"
         id="path22" />
      <path
         d="m 339.172,1177.06 c 41.457,27.73 64.496,80.54 54.078,135.44 -13.699,71.92 -79.469,119.84 -146.922,107.03 -67.418,-12.8 -110.996,-81.49 -97.301,-153.41 10.555,-55.41 52.059,-96.22 101.395,-106.34 C 68.1797,1094.94 116.43,892.551 116.43,892.551 l 444.367,84.398 c 0,0 -30.039,208.241 -221.625,200.111"
         style="fill:#e7e8e5;fill-opacity:1;fill-rule:nonzero;stroke:none"
         id="path24" />
      <path
         d="m 877.43,314.309 -91.473,22.543 c 0,0 -18.926,-76.801 -99.078,-58.52 -41.629,9.5 -56.434,41.949 -60.039,64.91 -4.188,26.649 5.664,53.418 24.769,72.477 21.817,21.75 61.543,36.633 120.516,10.582 l 50.816,206.25 -90.453,22.281 -29.765,-120.812 c 0,0 -134.934,-1.54 -169.379,-141.34 -32.957,-133.758 79.344,-194.379 130.687,-207.032 39.266,-9.679 175.364,-33.136 213.399,128.661"
         style="fill:#e7e8e5;fill-opacity:1;fill-rule:nonzero;stroke:none"
         id="path26" />
      <path
         d="m 762.992,783.32 91.793,-22.609 -21.121,-85.742 -91.797,22.621 21.125,85.73"
         style="fill:#e7e8e5;fill-opacity:1;fill-rule:nonzero;stroke:none"
         id="path28" />
      <path
         d="M 4347.64,2.60156 C 4347.64,1.17188 3374.31,0 2173.92,0 973.121,0 0,1.17188 0,2.60156 c 0,1.4375 973.121,2.60938 2173.92,2.60938 1200.39,0 2173.72,-1.17188 2173.72,-2.60938"
         style="fill:#040606;fill-opacity:1;fill-rule:nonzero;stroke:none"
         id="path30" />
      <path
         d="m 246.648,2519.57 h 208.735 l -18.457,-93.72 H 60.6289 l 14.9102,74.55 226.4879,177.49 c 56.09,44.73 73.125,71 73.125,103.67 0,32.65 -24.847,54.66 -73.125,54.66 -39.757,0 -78.097,-18.46 -105.789,-51.83 l -77.386,56.09 c 39.757,54.67 114.304,90.88 200.214,90.88 105.079,0 173.95,-56.09 173.95,-133.48 0,-58.93 -26.985,-108.62 -114.313,-176.08 L 246.648,2519.57"
         style="fill:#17282f;fill-opacity:1;fill-rule:nonzero;stroke:none"
         id="path32" />
      <path
         d="m 953.098,2530.22 h -81.645 l -20.59,-104.37 H 738.684 l 21.3,104.37 H 492.316 l 14.907,77.39 292.519,315.23 H 925.414 L 652.777,2623.93 H 783.41 l 18.465,93.02 h 107.203 l -18.453,-93.02 h 81.645 l -19.172,-93.71"
         style="fill:#17282f;fill-opacity:1;fill-rule:nonzero;stroke:none"
         id="path34" />
      <path
         d="m 1281.12,3023.66 h 103.66 L 1019.84,2354.85 H 916.891 l 364.229,668.81"
         style="fill:#17282f;fill-opacity:1;fill-rule:nonzero;stroke:none"
         id="path36" />
      <path
         d="m 1754.68,2922.84 -14.91,-74.55 -265.53,-422.44 h -127.8 l 254.89,403.27 h -161.18 l -16.32,-80.94 h -102.24 l 34.79,174.66 h 398.3"
         style="fill:#17282f;fill-opacity:1;fill-rule:nonzero;stroke:none"
         id="path38" />
      <path
         d="m 14.1875,2033.82 29.0781,55.17 c 26.4649,-16.78 57.0314,-25.72 86.8554,-25.72 28.328,0 44.731,8.94 44.731,23.11 0,35.04 -126.7426,15.66 -126.7426,97.67 0,56.28 48.0859,93.19 125.2536,93.19 36.903,0 70.453,-7.83 93.934,-22.36 l -26.836,-54.8 c -20.5,13.04 -45.856,19.75 -71.57,19.75 -30.575,0 -46.973,-11.18 -46.973,-25.34 -0.371,-35.79 126.742,-15.28 126.742,-95.81 0,-55.91 -49.203,-92.81 -125.625,-92.81 -44.7303,0 -85.367,11.92 -108.8475,27.95"
         style="fill:#17282f;fill-opacity:1;fill-rule:nonzero;stroke:none"
         id="path40" />
      <path
         d="M 380.203,2214.99 371.629,2171 H 487.563 L 476.75,2115.83 H 360.445 l -9.32,-47.72 h 136.809 l -11.93,-57.03 H 266.879 l 52.191,260.94 h 204.278 l -11.559,-57.03 H 380.203"
         style="fill:#17282f;fill-opacity:1;fill-rule:nonzero;stroke:none"
         id="path42" />
      <path
         d="m 670.547,2213.87 h -38.774 l -15.652,-76.42 h 43.984 c 32.43,0 51.446,15.65 51.446,44.36 0,22 -15.66,32.06 -41.004,32.06 z m 43.238,-124.51 44.363,-78.28 H 680.98 l -38.765,69.34 h -37.281 l -13.789,-69.34 h -73.809 l 52.187,260.94 H 680.98 c 66.727,0 105.122,-30.94 105.122,-83.13 0,-48.08 -26.836,-83.87 -72.317,-99.53"
         style="fill:#17282f;fill-opacity:1;fill-rule:nonzero;stroke:none"
         id="path44" />
      <path
         d="M 1109.62,2272.02 945.969,2011.08 h -72.692 l -59.265,260.94 h 75.672 l 37.277,-169.61 106.609,169.61 h 76.05"
         style="fill:#17282f;fill-opacity:1;fill-rule:nonzero;stroke:none"
         id="path46" />
      <path
         d="m 1125.22,2272.02 h 73.81 l -52.19,-260.94 h -73.81 l 52.19,260.94"
         style="fill:#17282f;fill-opacity:1;fill-rule:nonzero;stroke:none"
         id="path48" />
      <path
         d="m 1210.56,2120.68 c 0,90.58 66.72,156.56 163.65,156.56 48.08,0 87.22,-17.52 105.86,-49.2 l -53.3,-42.5 c -12.3,19.76 -31.32,30.57 -57.41,30.57 -50.7,0 -84.25,-39.15 -84.25,-90.58 0,-35.04 23.86,-58.53 63.74,-58.53 23.49,0 45.11,8.95 63.75,30.2 l 43.61,-42.88 c -29.44,-35.41 -67.84,-48.45 -114.44,-48.45 -80.14,0 -131.21,46.59 -131.21,114.81"
         style="fill:#17282f;fill-opacity:1;fill-rule:nonzero;stroke:none"
         id="path50" />
      <path
         d="m 1587.75,2214.99 -8.57,-43.99 h 115.93 l -10.81,-55.17 H 1568 l -9.33,-47.72 h 136.81 l -11.93,-57.03 h -209.12 l 52.19,260.94 h 204.28 l -11.56,-57.03 h -131.59"
         style="fill:#17282f;fill-opacity:1;fill-rule:nonzero;stroke:none"
         id="path52" />
      <path
         d="M 297.996,3069.97 H 152.305 c 0,202.83 82.07,410.22 225.168,568.97 150.632,167.11 346.066,259.15 550.289,259.15 416.728,0 707.778,-304.2 707.778,-739.76 h -145.69 c 0,355.33 -225.89,594.06 -562.088,594.06 -329.602,0 -629.766,-325.27 -629.766,-682.42"
         style="fill:#f2575d;fill-opacity:1;fill-rule:nonzero;stroke:none"
         id="path54" />
      <path
         d="m 377.895,3110.49 c 23.285,-0.38 42.14,-2.34 42.128,-4.38 -0.015,-2.03 -18.902,-3.7 -42.187,-3.74 -23.27,-0.03 -42.133,1.93 -42.113,4.38 0.015,2.45 18.906,4.12 42.172,3.74"
         style="fill:#17282f;fill-opacity:1;fill-rule:nonzero;stroke:none"
         id="path56" />
      <path
         d="m 478.453,3429.85 c 19.488,-12.75 33.496,-25.9 31.297,-29.38 -2.203,-3.48 -20.082,3.57 -39.937,15.73 -19.84,12.16 -33.856,25.32 -31.286,29.38 2.571,4.05 20.453,-2.99 39.926,-15.73"
         style="fill:#17282f;fill-opacity:1;fill-rule:nonzero;stroke:none"
         id="path58" />
      <path
         d="m 730.527,3649.97 c 9.426,-21.29 14.106,-39.93 10.45,-41.63 -3.661,-1.7 -14.895,13.89 -25.094,34.82 -10.195,20.92 -14.875,39.56 -10.445,41.63 4.429,2.05 15.667,-13.54 25.089,-34.82"
         style="fill:#17282f;fill-opacity:1;fill-rule:nonzero;stroke:none"
         id="path60" />
      <path
         d="m 1062.45,3676.14 c -5.8,-22.55 -13.68,-40.08 -17.59,-39.15 -3.92,0.93 -3.07,20.13 1.88,42.88 4.94,22.74 12.82,40.27 17.59,39.14 4.76,-1.13 3.92,-20.33 -1.88,-42.87"
         style="fill:#17282f;fill-opacity:1;fill-rule:nonzero;stroke:none"
         id="path62" />
      <path
         d="m 1333.7,3485.62 c -19.4,-12.89 -36.96,-20.68 -39.23,-17.41 -2.27,3.27 11.19,16.99 30.06,30.64 18.85,13.64 36.42,21.44 39.22,17.4 2.79,-4.04 -10.67,-17.75 -30.05,-30.63"
         style="fill:#17282f;fill-opacity:1;fill-rule:nonzero;stroke:none"
         id="path64" />
      <path
         d="m 1423.02,3171.42 c -23.29,0.03 -42.17,1.73 -42.18,3.8 -0.02,2.07 18.84,3.99 42.13,4.3 23.27,0.3 42.15,-1.4 42.17,-3.8 0.01,-2.4 -18.85,-4.32 -42.12,-4.3"
         style="fill:#17282f;fill-opacity:1;fill-rule:nonzero;stroke:none"
         id="path66" />
      <path
         d="m 888.004,3128.22 c -6.981,0 -13.988,2.26 -19.848,6.81 l -244.843,190.16 c -14.118,10.97 -16.676,31.31 -5.708,45.43 10.965,14.11 31.286,16.68 45.434,5.71 l 223.094,-173.28 308.557,283.29 c 13.09,12.18 33.57,11.43 45.75,-1.67 12.18,-13.1 11.43,-33.58 -1.66,-45.76 L 910.059,3136.89 c -6.184,-5.75 -14.11,-8.67 -22.055,-8.67"
         style="fill:#f2575d;fill-opacity:1;fill-rule:nonzero;stroke:none"
         id="path68" />
      <path
         d="M 1054.05,3994.75 H 773.301 c -4.375,0 -7.922,3.55 -7.922,7.93 v 101.64 c 0,4.38 3.547,7.93 7.922,7.93 h 280.749 c 4.37,0 7.92,-3.55 7.92,-7.93 v -101.64 c 0,-4.38 -3.55,-7.93 -7.92,-7.93"
         style="fill:#f2575d;fill-opacity:1;fill-rule:nonzero;stroke:none"
         id="path70" />
      <path
         d="M 990.328,3914.52 H 837.02 v 138.98 h 153.308 v -138.98"
         style="fill:#f2575d;fill-opacity:1;fill-rule:nonzero;stroke:none"
         id="path72" />
      <path
         d="M 379.695,3672.86 264.539,3530.25 c -4.484,-5.55 -12.617,-6.42 -18.168,-1.94 l -78.707,63.55 c -5.551,4.49 -6.418,12.62 -1.934,18.17 l 115.161,142.62 c 4.48,5.55 12.613,6.42 18.168,1.93 l 78.703,-63.55 c 5.551,-4.48 6.418,-12.62 1.933,-18.17"
         style="fill:#f2575d;fill-opacity:1;fill-rule:nonzero;stroke:none"
         id="path74" />
      <path
         d="m 1054.08,3994.76 c 0,-1.65 -62.865,-2.98 -140.396,-2.98 -77.563,0 -140.418,1.33 -140.418,2.98 0,1.64 62.855,2.97 140.418,2.97 77.531,0 140.396,-1.33 140.396,-2.97"
         style="fill:#17282f;fill-opacity:1;fill-rule:nonzero;stroke:none"
         id="path76" />
      <path
         d="m 278.277,3554.8 c -1.57,-1.78 -22.773,14.4 -48.972,34.1 -26.168,19.76 -47.559,35.68 -46.274,37.68 1.219,1.92 24.887,-10.97 51.348,-30.95 26.488,-19.92 45.41,-39.13 43.898,-40.83"
         style="fill:#17282f;fill-opacity:1;fill-rule:nonzero;stroke:none"
         id="path78" />
      <path
         d="m 302.637,3590.69 c -1.571,-1.78 -22.774,14.39 -48.973,34.1 -26.168,19.76 -47.559,35.68 -46.273,37.68 1.218,1.92 24.886,-10.97 51.347,-30.95 26.489,-19.93 45.41,-39.13 43.899,-40.83"
         style="fill:#17282f;fill-opacity:1;fill-rule:nonzero;stroke:none"
         id="path80" />
      <path
         d="m 332.621,3620.77 c -1.57,-1.79 -22.773,14.39 -48.973,34.09 -26.171,19.77 -47.558,35.69 -46.273,37.69 1.219,1.92 24.887,-10.98 51.348,-30.96 26.488,-19.92 45.41,-39.12 43.898,-40.82"
         style="fill:#17282f;fill-opacity:1;fill-rule:nonzero;stroke:none"
         id="path82" />
      <path
         d="m 361.602,3656.66 c -1.575,-1.79 -22.778,14.39 -48.977,34.09 -26.168,19.77 -47.559,35.68 -46.27,37.69 1.215,1.92 24.883,-10.98 51.344,-30.96 26.489,-19.92 45.414,-39.12 43.903,-40.82"
         style="fill:#17282f;fill-opacity:1;fill-rule:nonzero;stroke:none"
         id="path84" />
      <path
         d="m 1524.87,3621.59 -123.95,135.05 c -4.83,5.25 -4.48,13.43 0.78,18.25 l 74.53,68.4 c 5.25,4.83 13.43,4.48 18.25,-0.78 l 123.95,-135.05 c 4.83,-5.25 4.47,-13.42 -0.78,-18.25 l -74.53,-68.4 c -5.26,-4.83 -13.43,-4.48 -18.25,0.78"
         style="fill:#f2575d;fill-opacity:1;fill-rule:nonzero;stroke:none"
         id="path86" />
      <path
         d="m 1423.17,3739.4 c -1.54,1.82 17.61,20.39 40.98,43.38 23.42,22.94 42.34,41.73 44.13,40.17 1.72,-1.49 -14.54,-22.99 -38.23,-46.19 -23.63,-23.24 -45.43,-39.1 -46.88,-37.36"
         style="fill:#17282f;fill-opacity:1;fill-rule:nonzero;stroke:none"
         id="path88" />
      <path
         d="m 1455.04,3709.99 c -1.53,1.82 17.61,20.39 40.98,43.37 23.43,22.95 42.35,41.74 44.14,40.17 1.72,-1.49 -14.55,-22.98 -38.23,-46.19 -23.63,-23.23 -45.43,-39.1 -46.89,-37.35"
         style="fill:#17282f;fill-opacity:1;fill-rule:nonzero;stroke:none"
         id="path90" />
      <path
         d="m 1480.34,3675.88 c -1.54,1.81 17.61,20.38 40.98,43.37 23.43,22.94 42.34,41.73 44.13,40.16 1.72,-1.48 -14.54,-22.98 -38.23,-46.18 -23.63,-23.24 -45.43,-39.1 -46.88,-37.35"
         style="fill:#17282f;fill-opacity:1;fill-rule:nonzero;stroke:none"
         id="path92" />
      <path
         d="m 1511.53,3641.89 c -1.54,1.82 17.61,20.39 40.98,43.37 23.43,22.95 42.35,41.74 44.13,40.17 1.72,-1.49 -14.54,-22.98 -38.23,-46.18 -23.63,-23.24 -45.42,-39.11 -46.88,-37.36"
         style="fill:#17282f;fill-opacity:1;fill-rule:nonzero;stroke:none"
         id="path94" />
      <path
         d="m 804.813,3994.89 c -2.329,0 -4.215,25.95 -4.215,57.93 0,32 1.886,57.94 4.215,57.94 2.328,0 4.214,-25.94 4.214,-57.94 0,-31.98 -1.886,-57.93 -4.214,-57.93"
         style="fill:#17282f;fill-opacity:1;fill-rule:nonzero;stroke:none"
         id="path96" />
      <path
         d="m 859.758,3994.89 c -2.328,0 -4.215,25.95 -4.215,57.93 0,32 1.887,57.94 4.215,57.94 2.328,0 4.215,-25.94 4.215,-57.94 0,-31.98 -1.887,-57.93 -4.215,-57.93"
         style="fill:#17282f;fill-opacity:1;fill-rule:nonzero;stroke:none"
         id="path98" />
      <path
         d="m 914.703,3994.89 c -2.328,0 -4.219,25.95 -4.219,57.93 0,32 1.891,57.94 4.219,57.94 2.324,0 4.215,-25.94 4.215,-57.94 0,-31.98 -1.891,-57.93 -4.215,-57.93"
         style="fill:#17282f;fill-opacity:1;fill-rule:nonzero;stroke:none"
         id="path100" />
      <path
         d="m 969.645,3994.89 c -2.329,0 -4.215,25.95 -4.215,57.93 0,32 1.886,57.94 4.215,57.94 2.328,0 4.214,-25.94 4.214,-57.94 0,-31.98 -1.886,-57.93 -4.214,-57.93"
         style="fill:#17282f;fill-opacity:1;fill-rule:nonzero;stroke:none"
         id="path102" />
      <path
         d="m 1024.59,3994.89 c -2.33,0 -4.22,25.95 -4.22,57.93 0,32 1.89,57.94 4.22,57.94 2.33,0 4.21,-25.94 4.21,-57.94 0,-31.98 -1.88,-57.93 -4.21,-57.93"
         style="fill:#17282f;fill-opacity:1;fill-rule:nonzero;stroke:none"
         id="path104" />
      <path
         d="m 968.902,3171.78 c 0,-40.53 -32.859,-73.39 -73.39,-73.39 -40.532,0 -73.391,32.86 -73.391,73.39 0,40.53 32.859,73.39 73.391,73.39 40.531,0 73.39,-32.86 73.39,-73.39"
         style="fill:#f2575d;fill-opacity:1;fill-rule:nonzero;stroke:none"
         id="path106" />
      <path
         d="m 968.902,3171.78 c -0.746,-0.04 -0.613,6.53 -3.714,17.56 -3.067,10.82 -10.555,26.59 -26.883,38.66 -15.785,12.11 -41.653,18.81 -66.614,9.45 -24.753,-8.59 -46.086,-34.93 -45.808,-65.66 -0.285,-30.74 21.051,-57.09 45.808,-65.68 24.965,-9.36 50.832,-2.66 66.618,9.45 16.328,12.07 23.812,27.84 26.879,38.66 3.101,11.02 2.968,17.59 3.714,17.56 0.258,0 0.43,-1.61 0.52,-4.73 0.148,-3.1 -0.164,-7.73 -1.399,-13.54 -2.304,-11.47 -9.375,-28.62 -26.492,-42.18 -16.527,-13.56 -44.59,-21.65 -72.199,-11.73 -27.363,9.02 -51.297,38.09 -50.969,72.19 -0.316,34.08 23.61,63.14 50.969,72.17 27.606,9.91 55.668,1.83 72.195,-11.73 17.118,-13.55 24.188,-30.71 26.496,-42.18 1.231,-5.81 1.547,-10.44 1.399,-13.55 -0.09,-3.11 -0.262,-4.72 -0.52,-4.72"
         style="fill:#17282f;fill-opacity:1;fill-rule:nonzero;stroke:none"
         id="path108" />
      <path
         d="m 3479.13,2920.15 125.44,19.84 c 58.73,-47.35 130.83,-79.54 211.13,-89.69 230.92,-29.19 441.81,134.6 471.04,365.83 29.24,231.25 -134.25,442.37 -365.17,471.56 -230.92,29.2 -441.81,-134.59 -471.04,-365.84 -12.21,-96.55 9.28,-189.54 55.16,-267.3 l -0.17,0.16 -26.39,-134.56"
         style="fill:#ffffff;fill-opacity:1;fill-rule:nonzero;stroke:none"
         id="path110" />
      <path
         d="m 3479.13,2920.15 c 0,0 0.43,2.8 1.48,8.51 1.1,5.91 2.68,14.43 4.77,25.61 4.34,22.97 10.73,56.72 19.04,100.66 l 1.3,0.89 0.58,-0.31 0.17,-0.17 -1.75,-1.36 c -27.66,46.67 -55.58,114.35 -58.95,198.85 -0.91,21.01 -0.1,42.93 2.52,65.43 3.72,22.31 6.68,45.69 14.18,68.74 13.28,46.43 35.48,93.66 67.93,136.84 32.33,43.16 74.86,82.16 125.74,111.76 50.78,29.64 109.95,49.73 172.73,55.82 62.71,6.44 128.84,-2.27 190.89,-26.07 61.83,-23.89 120.54,-62.19 165.79,-114.72 l 17.05,-19.98 c 5.29,-6.94 10.09,-14.23 15.14,-21.31 10.62,-13.84 18.21,-29.5 26.92,-44.34 4.41,-7.41 7.26,-15.58 10.95,-23.3 3.28,-7.91 7.43,-15.45 9.96,-23.6 5.06,-16.26 11.71,-31.98 14.71,-48.61 15.84,-65.53 15.52,-132.97 1.54,-195.23 -14.26,-62.3 -42.6,-118.94 -79.22,-165.75 -36.65,-46.92 -81.62,-84.03 -129.25,-110.33 -47.67,-26.41 -97.92,-41.99 -146.08,-48.67 -24.08,-3.95 -47.73,-3.9 -70.47,-4.14 -22.68,1.86 -44.67,2.74 -65.36,7.04 -83.32,15.61 -146.08,52.95 -187.54,86.73 l 0.84,-0.22 c -40.86,-6.17 -72.32,-10.92 -93.77,-14.16 -10.42,-1.54 -18.37,-2.71 -23.9,-3.53 -5.34,-0.78 -7.94,-1.08 -7.94,-1.08 0,0 2.88,0.57 8.32,1.5 5.59,0.94 13.61,2.29 24.13,4.06 21.23,3.51 52.38,8.66 92.82,15.34 l 0.85,-0.22 c 41.54,-33.27 104.09,-69.96 186.8,-85.08 20.55,-4.18 42.37,-4.95 64.86,-6.72 22.54,0.33 45.97,0.36 69.82,4.36 47.69,6.77 97.39,22.35 144.5,48.6 47.08,26.15 91.49,62.96 127.65,109.42 36.13,46.35 64.05,102.37 78.08,163.96 13.75,61.56 14,128.19 -1.68,192.9 -2.97,16.43 -9.56,31.95 -14.55,48.01 -2.5,8.05 -6.62,15.49 -9.86,23.3 -3.65,7.63 -6.46,15.71 -10.81,23.02 -8.62,14.66 -16.11,30.13 -26.61,43.79 -4.99,6.99 -9.73,14.2 -14.95,21.06 l -16.85,19.73 c -44.7,51.9 -102.67,89.72 -163.73,113.36 -61.26,23.54 -126.62,32.21 -188.59,25.91 -62.03,-5.95 -120.54,-25.72 -170.81,-54.93 -50.37,-29.19 -92.52,-67.68 -124.62,-110.32 -32.22,-42.65 -54.33,-89.34 -67.63,-135.29 -7.52,-22.82 -10.52,-45.98 -14.3,-68.08 -2.68,-22.3 -3.57,-44.03 -2.76,-64.88 2.98,-83.82 30.29,-151.19 57.44,-197.83 l -0.39,-1.54 -1.36,0.17 -0.16,0.17 1.87,0.58 c -8.83,-43.49 -15.62,-76.9 -20.23,-99.64 -2.33,-11.27 -4.1,-19.86 -5.32,-25.81 -1.22,-5.83 -1.93,-8.9 -1.93,-8.9"
         style="fill:#17282f;fill-opacity:1;fill-rule:nonzero;stroke:none"
         id="path112" />
      <path
         d="m 3998.04,3256.81 c 0,23.67 19.19,42.86 42.87,42.86 23.67,0 42.86,-19.19 42.86,-42.86 0,-23.68 -19.19,-42.87 -42.86,-42.87 -23.68,0 -42.87,19.19 -42.87,42.87"
         style="fill:#17282f;fill-opacity:1;fill-rule:nonzero;stroke:none"
         id="path114" />
      <path
         d="m 3826.5,3256.81 c 0,23.67 19.19,42.86 42.86,42.86 23.68,0 42.87,-19.19 42.87,-42.86 0,-23.68 -19.19,-42.87 -42.87,-42.87 -23.67,0 -42.86,19.19 -42.86,42.87"
         style="fill:#17282f;fill-opacity:1;fill-rule:nonzero;stroke:none"
         id="path116" />
      <path
         d="m 3655.4,3235.37 c -11.84,20.51 -4.81,46.72 15.69,58.56 20.5,11.83 46.72,4.81 58.55,-15.69 11.84,-20.5 4.82,-46.72 -15.69,-58.56 -20.5,-11.83 -46.71,-4.81 -58.55,15.69"
         style="fill:#17282f;fill-opacity:1;fill-rule:nonzero;stroke:none"
         id="path118" />
      <path
         d="m 659.418,1721.56 c -26.383,12.52 -70.645,38.58 -97.996,48.81 -27.352,10.24 -58.016,15.07 -85.707,5.81 -16.188,-5.42 -32.266,-18.27 -32.375,-35.34 l 107.531,-78.84 108.547,28.57 v 30.99"
         style="fill:#f57f62;fill-opacity:1;fill-rule:nonzero;stroke:none"
         id="path120" />
      <path
         d="m 541.801,1722.68 c 0,0 -193.168,41.85 -224.957,58.43 -31.785,16.58 -200.469,101 -228.4417,101 -27.9726,0 -52.1328,-7.63 -57.2187,-35.6 l 36.7422,-28.56 4.668,-14.59 62.8012,-32.7 11.496,-21.09 159.781,-85.38 c 0,0 167.836,-85.19 195.808,-90.28 27.973,-5.08 167.836,-16.53 227.598,-67.39 l 239.996,98.51 c 0,0 -69.344,98.49 -122.676,122.7 -47.589,21.6 -127.492,21.65 -183.437,-1.24 l -122.16,-3.81"
         style="fill:#f9a78d;fill-opacity:1;fill-rule:nonzero;stroke:none"
         id="path122" />
      <path
         d="m 702.41,1561.23 c 0,0 305.5,-666.199 354.66,-799.621 0,0 341.51,56.11 353.21,245.711 L 970.074,1607.24 702.41,1561.23"
         style="fill:#f9a78d;fill-opacity:1;fill-rule:nonzero;stroke:none"
         id="path124" />
      <path
         d="m 418.641,1707.6 c -0.024,-0.18 -1.137,-0.15 -3.274,0.08 -2.164,0.13 -5.242,0.82 -9.187,1.85 -7.836,2.19 -18.801,6.5 -31.797,12.84 -13.031,6.28 -28.098,14.58 -44.707,23.87 -8.317,4.62 -17.012,9.54 -26.137,14.28 -9.023,4.77 -18.957,8.72 -29.031,13.14 -20.133,8.68 -39.547,16.28 -57.805,21.02 -18.109,4.49 -35.523,7.92 -48.625,3.52 -13.18,-4.52 -19.082,-15.79 -22.433,-22.65 -3.415,-7.2 -4.602,-11.54 -5.102,-11.38 -0.172,0.05 -0.004,1.16 0.488,3.23 0.43,2.1 1.297,5.13 2.754,8.95 1.477,3.79 3.555,8.42 7.102,13.16 3.461,4.74 8.797,9.52 15.957,12.16 7.125,2.78 15.519,3.09 24.094,2.38 8.609,-0.76 17.597,-2.41 26.949,-4.72 18.707,-4.58 38.465,-12.17 58.672,-20.88 10.039,-4.41 20.058,-8.43 29.339,-13.4 9.227,-4.88 17.883,-9.89 26.145,-14.63 16.488,-9.53 31.293,-18.11 44,-24.77 12.68,-6.7 23.254,-11.45 30.754,-14.19 7.5,-2.75 11.91,-3.34 11.844,-3.86"
         style="fill:#f57f62;fill-opacity:1;fill-rule:nonzero;stroke:none"
         id="path126" />
      <path
         d="m 234.426,1803.37 c -0.215,-0.59 -10.774,2.35 -27.043,9.36 -16.07,7.27 -38.106,17.49 -63.473,25.35 -12.5,3.79 -25.25,4.05 -36.523,3.12 -11.2503,-0.92 -20.68,-5.4 -25.7698,-12 -5.1133,-6.58 -6.5859,-13.64 -7.5742,-18.32 -0.6602,-4.79 -1.0664,-7.52 -1.4492,-7.52 -0.3321,0 -0.6211,2.73 -0.5665,7.75 0.4219,4.91 1.2891,12.55 6.6641,20.33 2.7774,3.73 6.6719,7.31 11.5859,9.82 4.918,2.47 10.5977,3.96 16.5547,4.71 11.809,1.26 25.188,1.11 38.504,-2.88 26.012,-8.06 48.019,-18.96 63.602,-27.02 15.695,-7.79 25.781,-11.95 25.488,-12.7"
         style="fill:#f57f62;fill-opacity:1;fill-rule:nonzero;stroke:none"
         id="path128" />
      <path
         d="m 716.004,1741.46 c 0.109,-0.34 -2.684,-1.54 -7.844,-3.43 -5.14,-1.94 -12.738,-4.29 -22.238,-6.79 -18.984,-5.04 -45.863,-9.97 -75.895,-11.31 -30.047,-1.27 -57.254,1.3 -76.605,4.67 -9.684,1.66 -17.457,3.34 -22.746,4.83 -5.305,1.43 -8.188,2.38 -8.11,2.73 0.184,0.82 12.059,-1.53 31.387,-3.92 19.317,-2.41 46.192,-4.36 75.848,-3.1 29.64,1.32 56.238,5.6 75.273,9.68 19.047,4.06 30.672,7.44 30.93,6.64"
         style="fill:#f57f62;fill-opacity:1;fill-rule:nonzero;stroke:none"
         id="path130" />
      <path
         d="m 3560.91,2137.05 -444.92,92 -109.37,82.5 -587.07,-113.21 c -9.36,-17.16 -104.51,-149.65 -104.51,-149.65 l -231.15,-78.53 c -98.87,-26.56 -187.04,-82.22 -250.85,-160.18 -48.77,-59.58 -103.14,-141.83 -149.67,-251.01 -104.01,-244.07 -254.12,-526.08 -254.12,-526.08 l -94.11,151.54 -396.542,-186.711 c 0,0 232.302,-468.367 309.212,-535.239 85.49,-74.332 282.02,-82.89 417.93,55.719 81.93,83.571 318.65,414.02 367.95,496.721 L 2106.48,668.988 2173.82,274.23 2065.01,2.60156 h 1587.98 l -65.7,256.73044 c 0,0 64.73,669.387 82.58,793.898 42.13,293.89 -108.96,1083.82 -108.96,1083.82"
         style="fill:#f2575d;fill-opacity:1;fill-rule:nonzero;stroke:none"
         id="path132" />
      <path
         d="m 3560.91,2137.05 c 0,0 318,-89.22 387.99,-405.24 42.42,-191.54 186.43,-737.388 237.07,-1186.841 30.1,-267.18 29.16,-514.1174 30.1,-542.36744 H 3728.06 L 3521.21,2047.85 l 39.7,89.2"
         style="fill:#f2575d;fill-opacity:1;fill-rule:nonzero;stroke:none"
         id="path134" />
      <path
         d="m 2745.32,1865.64 c 0.11,-0.06 -0.35,-1.19 -1.35,-3.29 -1.21,-2.48 -2.7,-5.51 -4.52,-9.2 -3.95,-8.06 -9.66,-19.87 -16.48,-35.03 -14.04,-30.12 -30.69,-74.56 -57.44,-124.23 l -1.37,-2.53 -2.21,1.88 c -32.97,28.1 -68.82,61.9 -105.81,98.43 -65.44,64.98 -122.85,125.5 -165.31,168.4 -20.95,21.07 -38.07,38.27 -50.41,50.68 -5.68,5.65 -10.25,10.19 -13.78,13.7 -3.12,3.18 -4.69,4.91 -4.57,5.04 0.12,0.13 1.94,-1.34 5.28,-4.27 3.71,-3.33 8.51,-7.65 14.47,-13.01 12.39,-11.48 30.14,-28.3 51.62,-49.53 43.16,-42.28 101.01,-102.41 166.36,-167.31 36.94,-36.48 72.58,-70.33 105.2,-98.56 l -3.58,-0.65 c 26.91,49.04 44.2,93.29 59,123.14 7.22,15.03 13.34,26.68 17.71,34.54 2.08,3.56 3.78,6.48 5.18,8.87 1.21,1.99 1.89,2.99 2.01,2.93"
         style="fill:#040606;fill-opacity:1;fill-rule:nonzero;stroke:none"
         id="path136" />
      <path
         d="m 3122.71,2217.81 c 0.18,-0.03 -0.15,-2.44 -0.94,-7 -0.95,-5.07 -2.19,-11.68 -3.72,-19.92 -3.62,-17.22 -9.63,-41.97 -18.2,-72.24 -17.24,-60.52 -45.24,-142.84 -79.61,-232.39 -18.23,-47.42 -36.23,-92.16 -53.05,-131.92 l -1.29,-3.03 -2.48,2.18 c -45.32,39.98 -85.91,71.46 -113.44,94.92 -13.84,11.64 -24.63,21.03 -31.87,27.62 -3.31,3.08 -6,5.6 -8.18,7.63 -1.83,1.77 -2.73,2.73 -2.64,2.83 0.09,0.1 1.16,-0.67 3.15,-2.24 2.31,-1.89 5.16,-4.21 8.66,-7.07 8.04,-6.53 19.02,-15.45 32.7,-26.56 28.03,-22.81 68.98,-53.72 114.78,-93.58 l -3.77,-0.84 c 16.52,39.77 34.36,84.57 52.57,131.92 34.34,89.47 62.83,171.45 80.94,231.56 9,30.07 15.54,54.62 19.75,71.66 1.93,8.13 3.48,14.67 4.67,19.67 1.12,4.49 1.8,6.84 1.97,6.8"
         style="fill:#040606;fill-opacity:1;fill-rule:nonzero;stroke:none"
         id="path138" />
      <path
         d="m 2093.99,713.25 c -0.09,-0.031 -0.38,0.738 -0.88,2.27 -0.56,1.832 -1.25,4.062 -2.09,6.8 -1.84,6.43 -4.35,15.211 -7.53,26.309 -3.39,11.402 -6.74,25.551 -10.74,41.953 -4.18,16.367 -8.28,35.148 -12.6,55.957 -17.75,83.133 -35.54,199.421 -46.6,328.641 -11.26,129.26 -13.75,246.78 -13.21,331.74 0.35,42.49 1.17,76.87 2.34,100.6 0.57,11.52 1.01,20.64 1.34,27.32 0.2,2.86 0.35,5.19 0.48,7.1 0.14,1.6 0.26,2.41 0.35,2.41 0.09,0 0.15,-0.83 0.19,-2.43 0.01,-1.92 0.02,-4.25 0.03,-7.12 -0.09,-6.68 -0.21,-15.81 -0.36,-27.34 -0.55,-23.74 -0.81,-58.1 -0.68,-100.54 0.39,-84.88 3.46,-202.22 14.71,-331.29 11.04,-129.04 28.22,-245.181 45.02,-328.36 4.08,-20.821 7.92,-39.618 11.83,-56.02 3.72,-16.449 6.78,-30.648 9.86,-42.109 2.78,-11.192 4.98,-20.051 6.59,-26.539 0.63,-2.793 1.16,-5.071 1.58,-6.942 0.33,-1.57 0.46,-2.39 0.37,-2.41"
         style="fill:#040606;fill-opacity:1;fill-rule:nonzero;stroke:none"
         id="path140" />
      <path
         d="m 3587.29,1786.43 c 0.08,0.03 0.54,-0.89 1.37,-2.73 0.91,-2.12 2.07,-4.83 3.53,-8.22 3.14,-7.61 7.53,-18.26 13.12,-31.82 2.78,-6.94 6.07,-14.58 9.27,-23.1 2.92,-8.63 6.1,-17.99 9.5,-28.03 3.4,-10.08 7.03,-20.84 10.88,-32.25 3.18,-11.63 6.54,-23.91 10.06,-36.8 29.77,-102.94 44.91,-251.77 36.32,-414.71 -8.79,-163.01 -27.78,-309.508 -39.58,-415.641 -6.12,-52.789 -11.08,-95.617 -14.56,-125.66 -1.77,-14.547 -3.16,-25.981 -4.15,-34.137 -0.5,-3.672 -0.9,-6.59 -1.21,-8.871 -0.3,-1.992 -0.5,-3.012 -0.59,-3 -0.08,0.008 -0.06,1.039 0.06,3.051 0.18,2.297 0.41,5.238 0.7,8.929 0.76,8.188 1.82,19.649 3.17,34.25 2.82,29.731 7.22,72.731 12.92,125.84 10.86,106.239 29.27,252.809 38.04,415.479 8.55,162.61 -5.93,310.69 -34.68,413.54 -3.39,12.88 -6.62,25.16 -9.67,36.78 -3.71,11.42 -7.2,22.19 -10.47,32.28 -3.25,10.07 -6.28,19.45 -9.08,28.11 -3.05,8.55 -6.19,16.23 -8.82,23.21 -5.2,13.7 -9.28,24.46 -12.2,32.14 -1.26,3.48 -2.27,6.25 -3.05,8.42 -0.66,1.91 -0.96,2.9 -0.88,2.94"
         style="fill:#040606;fill-opacity:1;fill-rule:nonzero;stroke:none"
         id="path142" />
      <path
         d="m 1431.52,692.242 c -1.44,-0.012 -3.11,76.238 -3.74,170.297 -0.63,94.082 0.03,170.341 1.47,170.351 1.44,0 3.11,-76.23 3.74,-170.32 0.62,-94.05 -0.03,-170.32 -1.47,-170.328"
         style="fill:#040606;fill-opacity:1;fill-rule:nonzero;stroke:none"
         id="path144" />
      <path
         d="m 2874.52,230.77 c -0.09,0.019 0.01,1.441 0.29,4.191 0.34,2.988 0.8,7.039 1.38,12.211 1.36,10.988 3.3,26.73 5.79,46.867 1.3,10.203 2.74,21.5 4.31,33.852 1.32,12.429 2.76,25.898 4.29,40.371 2.92,28.968 6.93,61.898 9.56,98.468 1.5,18.27 3.07,37.411 4.71,57.34 1.6,19.942 2.5,40.739 3.86,62.25 2.99,43 4.22,89.039 5.97,137.469 2.22,96.883 1.86,203.473 -3.15,315.201 -5.5,111.75 -15.15,217.93 -26.45,314.19 -6.29,48.06 -11.84,93.78 -18.85,136.32 -3.38,21.28 -6.23,41.91 -9.69,61.61 -3.5,19.69 -6.86,38.6 -10.07,56.65 -6.05,36.16 -13.14,68.56 -18.76,97.13 -2.89,14.26 -5.58,27.54 -8.06,39.78 -2.72,12.15 -5.22,23.27 -7.47,33.3 -4.37,19.81 -7.78,35.3 -10.16,46.11 -1.07,5.09 -1.9,9.08 -2.52,12.03 -0.54,2.71 -0.77,4.12 -0.68,4.14 0.08,0.02 0.49,-1.34 1.2,-4.02 0.74,-2.92 1.74,-6.86 3.02,-11.9 2.61,-10.77 6.34,-26.18 11.12,-45.91 2.38,-10.01 5.03,-21.1 7.92,-33.21 2.61,-12.23 5.44,-25.49 8.48,-39.72 5.9,-28.54 13.24,-60.91 19.53,-97.06 3.32,-18.05 6.79,-36.95 10.41,-56.64 3.57,-19.71 6.52,-40.34 9.99,-61.63 7.21,-42.55 12.93,-88.3 19.35,-136.4 11.58,-96.34 21.38,-202.64 26.89,-314.52 5.02,-111.869 5.23,-218.599 2.75,-315.592 -1.88,-48.468 -3.28,-94.558 -6.46,-137.589 -1.46,-21.52 -2.46,-42.34 -4.16,-62.289 -1.76,-19.938 -3.44,-39.09 -5.05,-57.368 -2.87,-36.582 -7.14,-69.504 -10.33,-98.472 -1.69,-14.461 -3.27,-27.918 -4.72,-40.34 -1.74,-12.34 -3.33,-23.629 -4.77,-33.809 -2.9,-20.09 -5.18,-35.789 -6.76,-46.761 -0.8,-5.141 -1.43,-9.161 -1.89,-12.141 -0.46,-2.731 -0.73,-4.117 -0.82,-4.109"
         style="fill:#040606;fill-opacity:1;fill-rule:nonzero;stroke:none"
         id="path146" />
      <path
         d="m 3085.9,1310.22 c -0.05,0.04 0.63,0.15 2.01,0.33 1.6,0.2 3.64,0.44 6.24,0.76 5.81,0.64 14.01,1.56 24.57,2.73 21.92,2.33 53.57,5.71 93.63,9.98 81.18,8.4 196.37,20.32 333.54,34.52 l 2.47,0.25 0.07,-2.49 c 2.58,-100.97 5.51,-215.11 8.61,-336.22 l 0.03,-1.06 -0.73,-0.77 c -12.78,-13.74 -26.46,-28.43 -40.24,-43.238 -50.34,-54.02 -99.19,-106.453 -145.65,-156.313 l -1.28,-1.379 -1.68,0.84 c -89.42,44.379 -172.33,85.531 -245.72,121.961 l -1.07,0.539 -0.12,1.172 c -10.68,111.518 -19.52,203.758 -25.71,268.388 -2.95,31.83 -5.26,56.84 -6.87,74.17 -0.72,8.29 -1.28,14.73 -1.69,19.35 -0.35,4.34 -0.41,6.48 -0.41,6.48 0,0 0.4,-2.41 0.93,-6.89 0.52,-4.7 1.26,-11.26 2.21,-19.7 1.87,-17.42 4.57,-42.56 8,-74.54 6.7,-64.26 16.25,-155.96 27.8,-266.828 l -1.18,1.699 c 73.5,-36.223 156.52,-77.152 246.06,-121.281 l -2.96,-0.551 c 46.42,49.902 95.23,102.371 145.53,156.43 13.78,14.812 27.46,29.491 40.25,43.231 l -0.69,-1.84 c -2.9,121.12 -5.63,235.26 -8.04,336.23 l 2.54,-2.24 c -136.65,-13.18 -251.42,-24.26 -332.29,-32.06 -40.34,-3.77 -72.21,-6.75 -94.27,-8.81 -10.77,-0.96 -19.14,-1.71 -25.08,-2.24 -2.71,-0.21 -4.84,-0.38 -6.51,-0.52 -1.48,-0.1 -2.25,-0.13 -2.3,-0.09"
         style="fill:#040606;fill-opacity:1;fill-rule:nonzero;stroke:none"
         id="path148" />
      <path
         d="m 3549,1239.78 c 0.05,-0.36 -6.12,-1.51 -17.31,-3.3 -11.19,-1.82 -27.44,-4.09 -47.54,-6.66 -40.2,-5.19 -95.89,-11.07 -157.42,-16.93 -61.11,-5.98 -116.4,-11.39 -157.51,-15.41 -19.5,-2.05 -35.59,-3.74 -47.7,-5.02 -11.27,-1.16 -17.53,-1.64 -17.57,-1.28 -0.05,0.35 6.11,1.51 17.31,3.29 11.19,1.82 27.43,4.09 47.53,6.67 40.2,5.18 95.89,11.06 157.45,16.93 61.09,5.98 116.37,11.38 157.49,15.41 19.49,2.05 35.58,3.74 47.7,5.01 11.27,1.17 17.52,1.64 17.57,1.29"
         style="fill:#040606;fill-opacity:1;fill-rule:nonzero;stroke:none"
         id="path150" />
      <path
         d="m 3662.37,642.141 c -1.46,17.769 -2.92,35.531 -4.38,53.3 l 5.07,-50.082 c -0.23,-1.07 -0.46,-2.148 -0.69,-3.218"
         style="fill:#a7a9a8;fill-opacity:1;fill-rule:nonzero;stroke:none"
         id="path152" />
      <path
         d="m 3663.06,645.359 -5.07,50.082 c -3.83,46.528 -7.65,93.059 -11.48,139.579 11.66,101.332 27.15,231.23 34.83,373.75 3.12,59.09 3.11,116.34 0.42,170.2 -1.77,65.98 -10.33,126.28 -20.44,176.11 -4.38,22.51 -9.34,43.63 -14.81,63.17 -1.61,6 -3.19,11.69 -4.73,17.07 -2.35,8.62 -4.63,16.95 -6.82,24.96 -3.7,10.96 -7.2,21.33 -10.48,31.07 98.58,-160.62 115.28,-331.28 124.2,-507.44 8.99,-177.57 -48.53,-364.449 -85.62,-538.551 m -4.16,344.711 c 6.34,73.39 13.64,165.95 18.79,255.61 -0.39,-12.13 -0.9,-24.36 -1.55,-36.67 -4.18,-77.51 -10.55,-151.36 -17.24,-218.94"
         style="fill:#cc4341;fill-opacity:1;fill-rule:nonzero;stroke:none"
         id="path154" />
      <path
         d="m 3646.51,835.02 c -0.31,3.82 -0.62,7.64 -0.94,11.46 0,0 6.03,59.09 13.33,143.59 6.69,67.58 13.06,141.43 17.24,218.94 0.65,12.31 1.16,24.54 1.55,36.67 1.35,23.48 2.55,46.74 3.55,69.43 0.95,21.75 1.07,43.09 0.52,63.86 2.69,-53.86 2.7,-111.11 -0.42,-170.2 -7.68,-142.52 -23.17,-272.418 -34.83,-373.75 m 14.81,720.06 c -4.78,23.56 -9.9,44.8 -14.81,63.17 5.47,-19.54 10.43,-40.66 14.81,-63.17 m -19.54,80.24 c -10.82,37.77 -19.57,59.7 -19.57,59.7 0.76,-1.22 1.52,-2.45 2.27,-3.67 3.28,-9.74 6.78,-20.11 10.48,-31.07 2.19,-8.01 4.47,-16.34 6.82,-24.96"
         style="fill:#040606;fill-opacity:1;fill-rule:nonzero;stroke:none"
         id="path156" />
      <path
         d="m 1365.29,1226.77 c -6.69,11.53 -14.41,23.94 -27.02,28.28 -14.04,4.84 -29.17,-1.93 -42.46,-8.55 -120.97,-60.21 -241.92,-120.44 -362.88,-180.67 -23.817,-11.85 -49.707,-25.95 -58.735,-50.98 -11.547,-32.01 9.516,-65.76 29.539,-93.268 33.446,-45.953 73.414,-95.891 129.886,-102.383 l 312.01,213.991 c 38.15,5.61 61.86,48.06 60.39,86.6 -1.48,38.53 -21.36,73.63 -40.73,106.98"
         style="fill:#f2575d;fill-opacity:1;fill-rule:nonzero;stroke:none"
         id="path158" />
      <path
         d="m 1404.69,1096.01 c 0.12,-0.13 -0.98,-1.33 -3.19,-3.5 -2.69,-2.54 -5.92,-5.61 -9.81,-9.29 -8.58,-8.02 -21.28,-19.3 -37.23,-32.94 -31.88,-27.31 -77.22,-63.581 -129.55,-100.561 -52.39,-36.949 -101.74,-67.547 -138.14,-88.457 -18.19,-10.461 -33.07,-18.66 -43.49,-24.051 -4.78,-2.441 -8.75,-4.461 -12.04,-6.141 -2.78,-1.351 -4.29,-1.988 -4.37,-1.828 -0.09,0.156 1.24,1.098 3.86,2.75 3.16,1.91 6.98,4.219 11.56,6.988 10.78,6.442 25.16,15.032 42.61,25.45 35.85,21.679 84.76,52.691 137,89.539 52.2,36.89 97.77,72.601 130.2,99.131 15.66,12.96 28.57,23.64 38.25,31.64 4.14,3.39 7.59,6.21 10.45,8.55 2.43,1.92 3.77,2.86 3.89,2.72"
         style="fill:#040606;fill-opacity:1;fill-rule:nonzero;stroke:none"
         id="path160" />
      <path
         d="m 2972.29,1654.86 c -8.24,0 -15.33,7.35 -20.7,14.1 -50.74,63.83 -94.98,132.82 -131.82,205.56 7.19,-6.48 17.39,-15.33 30.21,-26.11 27.53,-23.46 68.12,-54.94 113.44,-94.92 l 2.48,-2.18 1.29,3.03 c 16.82,39.76 34.82,84.5 53.05,131.92 34.37,89.55 62.37,171.87 79.61,232.39 8.57,30.27 14.58,55.02 18.2,72.24 0.13,0.73 0.26,1.44 0.4,2.14 23.74,-100.49 -11.63,-213.27 -48.16,-309.88 -26.25,-69.41 -52.51,-138.83 -78.76,-208.25 -3.19,-8.44 -7.75,-18.08 -16.61,-19.79 -0.89,-0.17 -1.77,-0.25 -2.63,-0.25 m 17.35,167.42 c 41.85,113.95 86.95,238.18 122.08,352.04 -3.94,-15.01 -9.06,-33.45 -15.4,-54.64 -18.11,-60.11 -46.6,-142.09 -80.94,-231.56 -8.7,-22.62 -17.32,-44.66 -25.74,-65.84"
         style="fill:#cc4341;fill-opacity:1;fill-rule:nonzero;stroke:none"
         id="path162" />
      <path
         d="m 2965.9,1751.31 -2.48,2.18 c -45.32,39.98 -85.91,71.46 -113.44,94.92 -12.82,10.78 -23.02,19.63 -30.21,26.11 -0.35,0.71 -0.71,1.41 -1.06,2.11 43.05,-36.53 103.24,-84.82 146.29,-121.36 8.01,21.82 16.26,44.2 24.64,67.01 8.42,21.18 17.04,43.22 25.74,65.84 34.34,89.47 62.83,171.45 80.94,231.56 6.34,21.19 11.46,39.63 15.4,54.64 2.13,6.9 4.22,13.76 6.28,20.58 0.15,-0.62 0.3,-1.25 0.45,-1.87 -0.14,-0.7 -0.27,-1.41 -0.4,-2.14 -3.62,-17.22 -9.63,-41.97 -18.2,-72.24 -17.24,-60.52 -45.24,-142.84 -79.61,-232.39 -18.23,-47.42 -36.23,-92.16 -53.05,-131.92 l -1.29,-3.03"
         style="fill:#040606;fill-opacity:1;fill-rule:nonzero;stroke:none"
         id="path164" />
      <path
         d="m 2442.96,3737.57 c 129.65,37.43 251.6,-0.32 371.51,-62.2 119.91,-61.89 216.59,-164.85 279.22,-284.38 65.95,-125.89 95.14,-272.65 71.26,-412.75 -23.88,-140.11 -103.04,-272.06 -221.71,-350.27 -162.06,-106.79 -385.42,-101.23 -552.41,-2.33 -167,98.9 -276.71,281.26 -305.9,473.14 -20.11,132.19 -3.76,271.61 57.96,390.23 61.72,118.62 170.8,214.38 300.07,248.56"
         style="fill:#17282f;fill-opacity:1;fill-rule:nonzero;stroke:none"
         id="path166" />
      <path
         d="m 2869.77,3330.63 c -25.06,48.38 -23.96,105.69 -37.67,158.42 -30.21,116.12 -136.01,199.99 -251.2,233.56 -107.16,31.22 -231.06,7.74 -349.8,-46.06 -81.4,-36.87 -155.52,-93.5 -204.08,-168.51 -64.45,-99.55 -76.22,-231.21 -30.47,-340.61 l 593.9,156.29 c 61.83,-40.37 125.1,-81.39 196.62,-99.7 20.99,-5.38 43.3,-8.69 64.17,-2.92 20.88,5.78 39.91,22.58 42.58,44.07 2.92,23.49 -13.17,44.44 -24.05,65.46"
         style="fill:#17282f;fill-opacity:1;fill-rule:nonzero;stroke:none"
         id="path168" />
      <path
         d="m 3011.46,2277.56 -153.32,1078.25 c -6.76,51 -29.87,102.92 -81.25,100.55 l -539.84,52.02 c -169.15,-7.81 -248.53,-229.67 -233.56,-398.34 16.64,-187.39 44.36,-415.51 87.49,-550.64 86.74,-271.72 305.58,-274.57 305.58,-274.57 -0.08,0.95 13.31,-53.98 29.94,-154.98 l 349.99,-232.75 234.97,380.46"
         style="fill:#f9a78d;fill-opacity:1;fill-rule:nonzero;stroke:none"
         id="path170" />
      <path
         d="m 2133.79,2905.01 c 2.21,-18.97 20.1,-32.73 39.94,-30.78 19.8,1.94 34.11,18.85 31.9,37.82 -2.22,18.96 -20.1,32.74 -39.9,30.79 -19.85,-1.94 -34.15,-18.88 -31.94,-37.83"
         style="fill:#17282f;fill-opacity:1;fill-rule:nonzero;stroke:none"
         id="path172" />
      <path
         d="m 2070.78,2999.44 c 5.14,-3.98 29.14,20.17 67.59,25.94 38.31,6.31 69.54,-9.16 72.99,-3.81 1.73,2.39 -4.07,10.1 -17.71,17.18 -13.45,7.05 -35.39,12.56 -59.31,8.81 -23.92,-3.79 -42.71,-15.68 -52.91,-26.46 -10.42,-10.87 -13.15,-19.91 -10.65,-21.66"
         style="fill:#17282f;fill-opacity:1;fill-rule:nonzero;stroke:none"
         id="path174" />
      <path
         d="m 2489.07,2962.75 c 2.2,-18.97 20.09,-32.73 39.93,-30.78 19.8,1.95 34.1,18.85 31.89,37.82 -2.2,18.95 -20.1,32.74 -39.9,30.8 -19.85,-1.94 -34.14,-18.89 -31.92,-37.84"
         style="fill:#17282f;fill-opacity:1;fill-rule:nonzero;stroke:none"
         id="path176" />
      <path
         d="m 2436.25,3050.33 c 5.16,-3.97 29.19,20.17 67.61,25.94 38.31,6.31 69.53,-9.15 72.99,-3.81 1.71,2.4 -4.03,10.11 -17.72,17.17 -13.45,7.07 -35.39,12.58 -59.31,8.83 -23.91,-3.8 -42.7,-15.68 -52.91,-26.47 -10.4,-10.87 -13.14,-19.91 -10.66,-21.66"
         style="fill:#17282f;fill-opacity:1;fill-rule:nonzero;stroke:none"
         id="path178" />
      <path
         d="m 2353.67,2743.65 c -0.15,2.21 -24.67,2.68 -64.13,1.73 -9.97,-0.48 -19.56,0.04 -22.24,6.49 -3.39,6.75 -0.9,17.94 2.11,30.08 5.6,25.16 11.46,51.53 17.62,79.16 24.05,112.54 39.87,204.48 35.33,205.41 -4.54,0.93 -27.73,-89.54 -51.78,-202.08 -5.69,-27.72 -11.15,-54.14 -16.33,-79.42 -2.01,-11.71 -6.47,-25.34 0.79,-39.29 3.77,-6.93 11.78,-11.15 18.33,-11.89 6.59,-0.95 12.12,-0.22 17.02,0.24 39.27,3.85 63.47,7.36 63.28,9.57"
         style="fill:#17282f;fill-opacity:1;fill-rule:nonzero;stroke:none"
         id="path180" />
      <path
         d="m 2396.56,2284.83 c 0,0 189.18,16.52 357.75,156.42 0,0 -87.3,-218.46 -340.26,-240.45 l -17.49,84.03"
         style="fill:#f57f62;fill-opacity:1;fill-rule:nonzero;stroke:none"
         id="path182" />
      <path
         d="m 2384.07,2653.51 c 11.03,20.38 33.71,34.12 58.15,35.2 16.95,0.75 35.03,-4.72 47.23,-16.76 12.21,-12.02 17.27,-30.99 10.04,-45.34 -8.15,-16.17 -29.3,-22.84 -48.44,-20.43 -19.14,2.42 -36.76,12.08 -53.59,21.81 -4.65,2.7 -9.42,5.53 -12.71,9.7 -3.29,4.16 -4.75,10.04 -2.13,14.3"
         style="fill:#f57f62;fill-opacity:1;fill-rule:nonzero;stroke:none"
         id="path184" />
      <path
         d="m 2470.83,2734.33 c -6.31,-0.59 -0.01,-42.31 -31.21,-77.38 -31.09,-35.14 -76.28,-37.25 -75.71,-43.12 -0.19,-2.71 11.14,-6.6 29.98,-4.24 18.51,2.18 44.49,12.2 63.56,33.65 19.02,21.47 24.69,47.13 23.5,64.46 -1.08,17.68 -7.31,27.3 -10.12,26.63"
         style="fill:#17282f;fill-opacity:1;fill-rule:nonzero;stroke:none"
         id="path186" />
      <path
         d="m 2425.45,3165.15 c 5.38,-9.87 43.01,0.94 88.91,2.39 45.9,2.37 84.27,-5.27 88.82,5.01 1.99,4.9 -5.85,13.76 -22.1,21.63 -16.12,7.87 -40.83,13.92 -68.36,12.8 -27.52,-1.17 -51.64,-9.25 -67.04,-18.44 -15.53,-9.2 -22.61,-18.68 -20.23,-23.39"
         style="fill:#17282f;fill-opacity:1;fill-rule:nonzero;stroke:none"
         id="path188" />
      <path
         d="m 2056.27,3169.19 c 8.09,-7.68 33.18,5.41 64.96,10.7 31.58,6.4 59.69,3.12 64.49,13.19 2.05,4.84 -3.53,12.94 -16.57,19.41 -12.87,6.46 -33.31,10.22 -55.09,6.22 -21.76,-4.03 -39.51,-14.84 -49.21,-25.47 -9.88,-10.68 -12.2,-20.24 -8.58,-24.05"
         style="fill:#17282f;fill-opacity:1;fill-rule:nonzero;stroke:none"
         id="path190" />
      <path
         d="m 2957.18,3422.98 c -72.82,154.35 -336.22,346.08 -503.39,311.78 l -247.93,-197.58 c 28.56,-89.66 110.13,-160.15 202.98,-175.42 49.58,-8.15 107.5,-4.48 141.29,-41.68 34.52,-37.98 25.74,-101.16 58.42,-140.73 45.3,-54.82 146.94,-38.38 183.57,-99.34 16.01,-26.63 14.12,-61.25 30.6,-87.6 21.95,-35.1 122.85,-69.85 160.31,-52.23 37.47,17.62 28.7,84.24 36.83,120.85 13.9,62.55 0.77,92.26 -10.87,124.62 -27.56,76.62 -17.06,163.69 -51.81,237.33"
         style="fill:#17282f;fill-opacity:1;fill-rule:nonzero;stroke:none"
         id="path192" />
      <path
         d="m 2872.01,2891.81 c -3.11,20.75 13.39,73.29 33.39,79.62 53.38,16.88 152.63,27.53 174.75,-111.22 30.24,-189.67 -166.42,-180.91 -167.63,-175.52 -0.93,4.21 -29.74,135.49 -40.51,207.12"
         style="fill:#f9a78d;fill-opacity:1;fill-rule:nonzero;stroke:none"
         id="path194" />
      <path
         d="m 2959.01,2765.79 c 0.74,0.74 3.68,-1.78 9.66,-3.46 5.85,-1.62 15.49,-1.85 24.78,3.43 18.87,10.55 30.67,45.05 26.14,79.38 -2.27,17.35 -8.5,33.21 -16.79,45.85 -8,12.95 -18.52,21.21 -28.9,21.39 -10.4,0.73 -16.58,-6.45 -18.06,-12.16 -1.69,-5.72 0.12,-9.31 -0.84,-9.79 -0.45,-0.56 -4.57,2.53 -4.29,10.6 0.19,3.89 1.69,8.72 5.56,13.08 3.97,4.43 10.35,7.37 17.51,7.74 14.79,1.32 30.1,-10.04 39.2,-23.91 9.92,-13.8 17.34,-31.57 19.88,-51.04 4.88,-38.41 -8.98,-77.29 -35.14,-89.59 -12.78,-5.6 -24.56,-3.36 -31.02,0.2 -6.62,3.74 -8.29,7.83 -7.69,8.28"
         style="fill:#f57f62;fill-opacity:1;fill-rule:nonzero;stroke:none"
         id="path196" />
      <path
         d="m 2254.72,3601.11 c -8.76,-79.62 -115.47,-192.51 -160.42,-258.8 -85.75,-126.5 -100.9,-166.99 -70.76,-424.65 -56.73,83.74 -102.32,166.94 -110.11,267.79 -7.79,100.85 17.82,205.66 79.47,285.85 61.64,80.2 160.72,132.96 261.82,129.81"
         style="fill:#17282f;fill-opacity:1;fill-rule:nonzero;stroke:none"
         id="path198" />
      <path
         d="m 2707.77,3872.34 c 40.31,44.16 97.81,72.87 157.8,87.84 85.55,21.36 179.36,15.58 257.23,-21.6 77.88,-37.19 137.97,-106.76 154,-186.93 16.03,-80.17 -14.89,-169.11 -82.83,-222.37 43.22,-42.4 98.06,-74.52 158.12,-92.62 -16.23,-24.27 -46.16,-38.51 -76.32,-43.62 -30.16,-5.1 -61,-2.25 -91.35,0.62 19.54,-30.09 51.14,-53.15 87.36,-63.74 -48.76,-12.53 -100.93,-8.6 -148.93,4.81 -47.99,13.4 -92.3,35.89 -134.66,60.49 -146.28,84.98 -226.96,159.33 -325.8,290.5 -13.26,55.8 5.08,142.47 45.38,186.62"
         style="fill:#17282f;fill-opacity:1;fill-rule:nonzero;stroke:none"
         id="path200" />
      <path
         d="m 3023.13,3471.62 c -107.34,156.81 -244.02,240.79 -367.76,266.86"
         style="fill:#17282f;fill-opacity:1;fill-rule:nonzero;stroke:none"
         id="path202" />
      <path
         d="m 2655.37,3738.48 c -0.08,-0.38 6.17,-2.26 17.52,-5.32 11.29,-3.2 27.58,-8.12 47.18,-15.57 39.22,-14.68 91.46,-40.93 142.5,-79.58 51.04,-38.67 91.33,-80.88 118.16,-113.13 13.23,-16.31 23.95,-29.52 30.85,-39.04 7.13,-9.36 11.23,-14.44 11.55,-14.22 0.32,0.22 -3.16,5.72 -9.75,15.51 -6.38,9.94 -16.65,23.57 -29.55,40.29 -26.17,33.06 -66.33,76.09 -117.85,115.12 -51.51,39.01 -104.64,64.99 -144.53,78.81 -19.94,7.03 -36.51,11.4 -48.02,13.95 -11.57,2.41 -17.98,3.56 -18.06,3.18"
         style="fill:#33535f;fill-opacity:1;fill-rule:nonzero;stroke:none"
         id="path204" />
      <path
         d="m 3151.21,3337.88 c -0.05,0.09 -0.88,-0.18 -2.45,-0.78 -1.88,-0.75 -4.16,-1.67 -6.94,-2.79 -6.01,-2.64 -15.08,-6.04 -26.82,-10.16 -23.55,-7.95 -58.62,-17.27 -102.98,-21.01 -44.29,-3.84 -97.68,-1.59 -155.39,9.77 -57.8,11.15 -119.57,31.37 -182.6,56.86 -62.98,25.72 -122.35,52.11 -175.26,78.04 -52.84,26.09 -98.84,52.79 -135.31,78.37 -36.6,25.4 -63.85,49.16 -81.81,66.41 -9.15,8.48 -15.74,15.56 -20.35,20.25 -2.12,2.12 -3.86,3.86 -5.29,5.29 -1.21,1.17 -1.87,1.74 -1.95,1.67 -0.07,-0.07 0.45,-0.76 1.52,-2.06 1.32,-1.53 2.92,-3.4 4.88,-5.67 4.34,-4.95 10.7,-12.3 19.65,-21.05 17.55,-17.81 44.55,-42.16 81.05,-68.13 36.36,-26.12 82.39,-53.32 135.29,-79.75 52.99,-26.3 112.29,-52.82 175.47,-78.63 63.22,-25.57 125.43,-45.77 183.72,-56.73 58.23,-11.17 112.12,-13.02 156.74,-8.63 44.69,4.28 79.9,14.28 103.35,22.92 11.7,4.46 20.67,8.21 26.55,11.19 2.7,1.33 4.91,2.42 6.72,3.32 1.5,0.77 2.25,1.21 2.21,1.3"
         style="fill:#33535f;fill-opacity:1;fill-rule:nonzero;stroke:none"
         id="path206" />
      <path
         d="m 2584.56,2396.17 -18.24,35.61 c 1.27,0.64 126.82,65.14 175.12,105.72 113.79,95.6 218.47,248.32 219.51,249.86 l 33.05,-22.53 c -4.38,-6.43 -108.75,-158.75 -226.83,-257.96 -51.75,-43.48 -177.3,-107.97 -182.61,-110.7"
         style="fill:#33535f;fill-opacity:1;fill-rule:nonzero;stroke:none"
         id="path208" />
      <path
         d="m 2678.05,2506.65 c 0,0 -171.77,-76.53 -171.77,-93.54 0,-17 27.21,-51.02 47.62,-49.32 20.41,1.7 79.39,34.88 89.6,48.49 10.2,13.6 29.38,48.56 49.79,65.56 l -15.24,28.81"
         style="fill:#17282f;fill-opacity:1;fill-rule:nonzero;stroke:none"
         id="path210" />
      <path
         d="m 2992.73,3021.3 -39.96,1.88 c 0.08,1.68 7.02,169.71 -58.64,338.82 -86.79,223.53 -253.61,343.58 -495.82,356.82 -19.9,1.16 -41.99,-0.51 -65.86,-4.5 l 17.5,16.51 c 8.49,8 18.35,14.41 29.11,18.93 v 0 c 14.72,6.18 30.78,8.6 46.69,7.22 305.85,-26.48 443.98,-220.86 506.12,-381.67 68.36,-176.9 61.19,-346.86 60.86,-354.01"
         style="fill:#33535f;fill-opacity:1;fill-rule:nonzero;stroke:none"
         id="path212" />
      <path
         d="m 3099.5,2840.08 c 0,-100.61 -56.75,-182.16 -126.74,-182.16 -70,0 -126.74,81.55 -126.74,182.16 0,100.61 56.74,182.17 126.74,182.17 69.99,0 126.74,-81.56 126.74,-182.17"
         style="fill:#33535f;fill-opacity:1;fill-rule:nonzero;stroke:none"
         id="path214" />
      <path
         d="m 3099.5,2840.08 c -0.09,0 -0.21,0.86 -0.36,2.52 -0.14,1.97 -0.31,4.4 -0.52,7.39 -0.18,6.5 -1.27,16.04 -2.98,28.23 -4.23,23.93 -12.55,60.07 -39.1,95.26 -6.43,8.86 -14.71,16.87 -23.8,24.49 -9.55,6.93 -20,13.89 -32.28,17.47 -12.09,3.69 -25.36,5.62 -38.8,3.71 -13.37,-1.91 -26.63,-6.88 -38.74,-14.49 -24.11,-15.58 -43.17,-40.76 -55.4,-69.61 -12.66,-28.83 -18.53,-61.57 -18.9,-94.95 0.36,-33.38 6.23,-66.13 18.9,-94.97 12.22,-28.86 31.29,-54.04 55.4,-69.63 12.12,-7.61 25.37,-12.58 38.75,-14.49 13.43,-1.91 26.71,0.03 38.8,3.71 12.28,3.59 22.73,10.54 32.28,17.48 9.09,7.62 17.37,15.63 23.8,24.49 26.55,35.19 34.86,71.32 39.09,95.25 1.71,12.2 2.8,21.73 2.98,28.23 0.21,2.99 0.38,5.42 0.52,7.39 0.15,1.67 0.27,2.52 0.36,2.52 0.09,0 0.14,-0.85 0.17,-2.52 0,-1.98 0,-4.42 0,-7.43 0.15,-6.54 -0.61,-16.15 -2.03,-28.49 -3.66,-24.22 -11.42,-60.9 -38.16,-97.18 -6.49,-9.14 -14.91,-17.46 -24.23,-25.41 -9.81,-7.27 -20.61,-14.56 -33.43,-18.43 -12.63,-3.96 -26.59,-6.07 -40.73,-4.15 -14.09,1.91 -28.06,7.08 -40.74,14.97 -25.24,16.17 -44.92,42.13 -57.52,71.66 -13.04,29.53 -19.05,62.96 -19.42,97 0.37,34.04 6.39,67.45 19.43,96.98 12.6,29.52 32.27,55.47 57.51,71.64 12.68,7.89 26.64,13.06 40.73,14.97 14.15,1.92 28.1,-0.19 40.73,-4.14 12.82,-3.87 23.62,-11.17 33.43,-18.44 9.32,-7.94 17.74,-16.26 24.23,-25.39 26.75,-36.28 34.51,-72.97 38.17,-97.2 1.42,-12.34 2.18,-21.95 2.03,-28.49 0,-3.01 0,-5.44 0,-7.42 -0.03,-1.67 -0.08,-2.53 -0.17,-2.53"
         style="fill:#17282f;fill-opacity:1;fill-rule:nonzero;stroke:none"
         id="path216" />
      <path
         d="m 3072.94,2850.32 c 0,-64.04 -36.12,-115.96 -80.68,-115.96 -44.56,0 -80.68,51.92 -80.68,115.96 0,64.04 36.12,115.96 80.68,115.96 44.56,0 80.68,-51.92 80.68,-115.96"
         style="fill:#33535f;fill-opacity:1;fill-rule:nonzero;stroke:none"
         id="path218" />
      <path
         d="m 3072.94,2850.32 c -0.59,-0.02 -0.39,8.75 -2.82,24.23 -2.79,15.18 -8.19,38.08 -25.05,60.28 -8.38,10.88 -20.1,21.41 -35.42,26.37 -7.6,2.3 -15.92,3.5 -24.34,2.28 -8.39,-1.21 -16.7,-4.34 -24.31,-9.13 -15.13,-9.82 -27.16,-25.7 -34.87,-43.94 -8,-18.23 -11.71,-38.95 -11.94,-60.07 0.23,-21.13 3.93,-41.86 11.93,-60.09 7.71,-18.25 19.74,-34.14 34.88,-43.96 7.61,-4.79 15.92,-7.92 24.31,-9.13 8.42,-1.21 16.75,-0.01 24.35,2.28 15.31,4.97 27.03,15.5 35.41,26.38 16.86,22.2 22.26,45.1 25.05,60.28 2.43,15.47 2.23,24.24 2.82,24.22 0.18,0 0.28,-2.17 0.3,-6.34 0.16,-4.17 -0.27,-10.3 -1.12,-18.18 -2.23,-15.47 -7.07,-38.92 -24.13,-62.22 -8.49,-11.4 -20.59,-22.7 -36.98,-28.24 -8.14,-2.57 -17.15,-3.95 -26.28,-2.72 -9.1,1.22 -18.12,4.54 -26.3,9.62 -16.27,10.4 -28.9,27.06 -36.99,45.98 -8.37,18.93 -12.23,40.32 -12.46,62.12 0.24,21.78 4.1,43.17 12.46,62.1 8.09,18.91 20.72,35.57 36.99,45.96 8.18,5.08 17.2,8.41 26.29,9.62 9.14,1.23 18.15,-0.14 26.28,-2.71 16.4,-5.55 28.5,-16.84 36.99,-28.24 17.06,-23.3 21.9,-46.75 24.13,-62.22 0.85,-7.89 1.28,-14.02 1.12,-18.19 -0.02,-4.16 -0.12,-6.34 -0.3,-6.34"
         style="fill:#17282f;fill-opacity:1;fill-rule:nonzero;stroke:none"
         id="path220" />
      <path
         d="m 3055.87,2850.32 c 0,-46.07 -25.98,-83.41 -58.04,-83.41 -32.05,0 -58.03,37.34 -58.03,83.41 0,46.07 25.98,83.42 58.03,83.42 32.06,0 58.04,-37.35 58.04,-83.42"
         style="fill:#33535f;fill-opacity:1;fill-rule:nonzero;stroke:none"
         id="path222" />
      <path
         d="m 3055.87,2850.32 c -0.52,-0.01 -0.48,6.3 -2.31,17.39 -2.09,10.88 -6.05,27.28 -18.15,43.09 -6.01,7.75 -14.39,15.22 -25.25,18.71 -10.77,3.63 -23.73,2.09 -34.45,-4.92 -21.72,-14.34 -33.27,-44.33 -33.31,-74.26 0.04,-29.93 11.59,-59.93 33.31,-74.28 10.72,-7.01 23.69,-8.54 34.45,-4.92 10.86,3.5 19.24,10.96 25.25,18.72 12.1,15.81 16.06,32.21 18.15,43.09 1.83,11.09 1.79,17.39 2.31,17.38 0.18,0 0.3,-1.56 0.36,-4.56 0.16,-3.01 -0.1,-7.43 -0.67,-13.12 -1.52,-11.17 -4.92,-28.12 -17.22,-45.03 -6.13,-8.28 -14.89,-16.51 -26.83,-20.58 -5.93,-1.89 -12.51,-2.9 -19.18,-2.02 -6.64,0.88 -13.23,3.3 -19.19,6.99 -11.87,7.56 -21.04,19.66 -26.91,33.36 -6.07,13.72 -8.87,29.2 -9.04,44.97 0.17,15.77 2.97,31.25 9.04,44.96 5.87,13.7 15.04,25.79 26.91,33.35 5.96,3.69 12.54,6.11 19.19,6.99 6.67,0.88 13.25,-0.13 19.17,-2.02 11.95,-4.07 20.7,-12.3 26.83,-20.57 12.3,-16.91 15.71,-33.86 17.23,-45.03 0.57,-5.69 0.83,-10.12 0.67,-13.12 -0.06,-3 -0.18,-4.57 -0.36,-4.57"
         style="fill:#17282f;fill-opacity:1;fill-rule:nonzero;stroke:none"
         id="path224" />
    </g>
  </g>
</svg>
